<?xml version="1.0" encoding="iso-8859-1"?>
<!-- Generator: Adobe Illustrator 18.0.0, SVG Export Plug-In . SVG Version: 6.00 Build 0)  -->
<!DOCTYPE svg PUBLIC "-//W3C//DTD SVG 1.1//EN" "http://www.w3.org/Graphics/SVG/1.1/DTD/svg11.dtd">
<svg version="1.1" id="Capa_1" xmlns="http://www.w3.org/2000/svg" xmlns:xlink="http://www.w3.org/1999/xlink" x="0px" y="0px"
	 viewBox="0 0 487.458 487.458" style="enable-background:new 0 0 487.458 487.458;" xml:space="preserve">
<g>
	<path d="M227.347,82.766l87.904-0.017l-10.279,35.527c-0.691,2.388,0.124,4.945,2.05,6.484c1.941,1.541,4.589,1.787,6.781,0.602
		l104.308-56.925c1.958-1.078,3.19-3.142,3.19-5.374c0-2.25-1.232-4.299-3.19-5.377L313.804,0.747
		c-2.173-1.186-4.84-0.94-6.781,0.601c-1.927,1.554-2.742,4.112-2.05,6.485l10.261,35.48l-87.887,0.015
		c-10.877,0-19.722,8.826-19.722,19.72C207.626,73.937,216.47,82.766,227.347,82.766z"/>
	<path d="M455.902,220.599h-64.425l-19.409-60.004c-2.653-8.133-10.23-13.649-18.767-13.649H36.469
		c-6.314,0-12.233,3.021-15.942,8.119c-3.714,5.099-4.761,11.662-2.82,17.671l97.395,301.072c2.619,8.134,10.196,13.65,18.763,13.65
		h316.819c0.106-0.018,0.198-0.018,0.321,0c9.831,0,19.59-7.04,19.59-16.763c0-58.823,0.115-235.292,0.115-235.292
		C470.709,227.224,464.069,220.599,455.902,220.599z M152.922,220.599c-8.18,0-14.807,6.625-14.807,14.805v181.403L63.583,186.385
		h275.36l11.062,34.214H152.922z"/>
</g>
<g>
</g>
<g>
</g>
<g>
</g>
<g>
</g>
<g>
</g>
<g>
</g>
<g>
</g>
<g>
</g>
<g>
</g>
<g>
</g>
<g>
</g>
<g>
</g>
<g>
</g>
<g>
</g>
<g>
</g>
</svg>
